<?xml version="1.0" standalone="no"?>
<!DOCTYPE svg PUBLIC "-//W3C//DTD SVG 20010904//EN"
 "http://www.w3.org/TR/2001/REC-SVG-20010904/DTD/svg10.dtd">
<svg version="1.0" xmlns="http://www.w3.org/2000/svg"
 width="784.000000pt" height="318.000000pt" viewBox="0 0 784.000000 318.000000"
 preserveAspectRatio="xMidYMid meet">

<g transform="translate(0.000000,318.000000) scale(0.100000,-0.100000)"
fill="#000000" stroke="none">
<path fill="#00547F" d="M1530 2444 c172 -23 483 -119 675 -210 231 -108 421 -276 460 -407
23 -75 21 -196 -4 -252 -24 -54 -76 -132 -111 -164 -35 -33 -125 -76 -190 -91
-84 -20 -269 -16 -370 8 -115 28 -163 47 -383 158 -189 95 -301 144 -392 171
-115 34 -80 55 80 50 146 -5 195 -21 356 -113 222 -127 318 -162 457 -171 66
-4 92 -3 92 6 0 7 -21 11 -56 11 -142 0 -281 63 -489 220 -82 62 -190 115
-280 136 -107 25 -279 22 -392 -6 -105 -26 -108 -31 -73 -101 25 -48 86 -89
225 -149 302 -130 635 -311 885 -480 218 -148 347 -199 574 -230 171 -24 334
9 566 113 178 80 231 96 340 103 65 5 109 1 188 -15 131 -27 180 -47 327 -131
171 -99 216 -113 350 -114 92 0 117 3 153 20 l43 21 -118 0 c-91 -1 -129 3
-168 17 -82 30 -193 100 -320 200 -124 99 -209 150 -305 182 -43 15 -84 19
-185 19 -124 0 -135 -2 -243 -38 -105 -35 -121 -37 -210 -35 -54 2 -96 7 -95
12 1 4 44 23 95 40 51 18 152 62 223 99 72 37 159 74 194 83 77 19 168 12 264
-20 74 -25 80 -19 12 13 -150 70 -342 71 -565 1 -64 -20 -160 -27 -160 -12 0
4 24 13 53 19 28 7 108 41 177 77 69 35 150 71 180 80 149 44 377 -5 555 -119
130 -83 288 -142 405 -152 69 -6 184 12 175 28 -4 5 -37 9 -74 9 -127 0 -237
48 -482 212 -174 117 -253 153 -367 169 -138 20 -255 -2 -397 -73 -28 -14 -82
-34 -122 -44 -63 -16 -81 -17 -142 -6 -38 6 -85 19 -104 28 -31 15 -36 22 -41
66 -10 76 -34 136 -83 213 -88 137 -184 216 -397 327 l-131 68 135 -4 c117 -4
124 -4 50 4 -47 4 -168 31 -270 59 -260 72 -358 91 -490 96 -63 2 -99 1 -80
-1z"/>
<path fill="#00547F" d="M1080 2203 c0 -22 -33 -79 -67 -114 l-24 -26 68 -7 c269 -27 675
-116 1007 -221 98 -31 181 -54 183 -51 3 3 -48 40 -114 84 -340 224 -700 351
-1000 352 -44 0 -53 -3 -53 -17z m285 -46 c17 -8 45 -29 64 -45 48 -40 38 -62
-29 -62 -83 0 -261 31 -267 46 -7 19 23 63 50 75 32 13 147 5 182 -14z"/>
<path fill="#00547F" d="M5110 2011 c-160 -49 -213 -208 -98 -294 18 -14 74 -39 123 -57 114
-41 150 -63 165 -101 11 -26 10 -36 -3 -64 -38 -79 -133 -91 -313 -39 -17 4
-24 -1 -34 -26 -16 -38 -11 -42 69 -66 74 -22 201 -15 257 14 83 42 127 128
106 201 -18 57 -65 97 -156 131 -124 46 -164 67 -181 94 -37 56 16 129 101
142 47 7 146 1 175 -10 10 -5 19 1 27 19 7 14 12 30 12 35 0 23 -190 39 -250
21z"/>
<path fill="#00547F" d="M5645 1801 c-76 -34 -125 -125 -125 -230 0 -152 88 -230 248 -218 97
7 110 12 105 41 -5 22 -8 22 -82 18 -93 -5 -139 12 -177 67 -47 70 -44 71 136
71 146 0 160 2 160 18 -1 56 -22 169 -35 189 -41 62 -147 82 -230 44z m128
-52 c31 -14 54 -55 63 -108 l7 -42 -124 3 c-142 3 -146 6 -109 83 32 67 99 93
163 64z"/>
<path fill="#00547F" d="M6078 1813 c-17 -4 -18 -23 -18 -229 l0 -224 35 0 35 0 0 180 0 179
33 17 c43 23 111 22 137 -1 31 -28 40 -79 40 -232 l0 -143 35 0 36 0 -1 173
c0 94 -1 177 0 184 0 16 56 33 110 33 37 0 51 -5 71 -26 23 -25 24 -32 27
-195 l3 -169 35 0 36 0 -4 183 c-3 201 -11 233 -68 262 -46 24 -128 19 -188
-11 l-52 -26 -31 26 c-41 35 -112 36 -180 1 -27 -13 -49 -21 -49 -16 0 16 -26
37 -42 34z"/>
<path fill="#00547F" d="M6958 1800 c-147 -78 -159 -332 -19 -422 42 -27 52 -29 111 -24 36 2
77 8 93 11 24 7 27 5 27 -19 0 -132 -81 -198 -215 -176 -33 5 -60 9 -61 7 -1
-1 -4 -12 -8 -23 -9 -30 34 -44 132 -44 118 0 184 44 212 141 6 19 10 152 10
297 0 228 -2 263 -15 269 -9 3 -21 -2 -29 -12 -11 -16 -15 -16 -59 -1 -63 21
-133 20 -179 -4z m190 -56 c21 -14 22 -20 22 -158 0 -171 0 -171 -102 -171
-67 0 -71 1 -103 37 -33 36 -55 90 -55 138 0 75 48 153 103 169 39 12 104 4
135 -15z"/>
<path fill="#00547F" d="M4060 1641 c5 -11 28 -35 51 -55 57 -49 123 -62 204 -41 88 23 93 37
10 29 -85 -8 -139 5 -218 51 -44 27 -55 30 -47 16z"/>
</g>
</svg>
